# xmcd CD database file
#
# Track frame offsets:
#	150
#	11975
#	30920
#	49897
#	68220
#	84775
#	99565
#	116172
#	137062
#	170165
#	193415
#	220552
#	235737
#	254750
#	270707
#	289650
#
# Disc length: 4017 seconds
#
# Revision: 0
# Processed by: cddbd v1.5PL3 Copyright (c) Steve Scherf et al.
# Submitted via: CDex 1.51
#
DISCID=ed0faf10
DTITLE=Buckener Persianni - The Definitive Black and Blues Session 
DYEAR=1975
DGENRE=Jazz
TTITLE0=Undertime
TTITLE1=Pianistically Yours
TTITLE2=Mon Amie Clotilde
TTITLE3=Take me to Your Heart 
TTITLE4=Foolin' Around with  The Trolley Song
TTITLE5=Furstenberg after Dark
TTITLE6=Caprice
TTITLE7=Pour toute mes Soeurs 
TTITLE8=Peanuts Vendor
TTITLE9=That's All
TTITLE10=Hard sock Dance
TTITLE11=Furstenberg After Dark 
TTITLE12=Mon amie Clotilde
TTITLE13=Foolin' Around With The Trolley Song
TTITLE14=Pianistically Yours
TTITLE15=Undertime
EXTD=YEAR: 1975
EXTT0=
EXTT1=
EXTT2=
EXTT3=
EXTT4=
EXTT5=
EXTT6=
EXTT7=
EXTT8=
EXTT9=
EXTT10=
EXTT11=
EXTT12=
EXTT13=
EXTT14=
EXTT15=
PLAYORDER=
